<svg width="79" height="55" viewBox="0 0 79 55" fill="none" xmlns="http://www.w3.org/2000/svg">
<path d="M3.98477 20.3621H3.05625C1.64433 20.3621 0.5 21.36 0.5 22.5906C0.5 23.8212 1.64433 24.8191 3.05625 24.8191H3.98477C5.39596 24.8191 6.54106 23.8212 6.54106 22.5906C6.54106 21.36 5.39633 20.3621 3.98477 20.3621Z" fill="#666666"/>
<path d="M25.243 24.8191C26.6546 24.8191 27.7997 23.8212 27.7997 22.5906C27.7997 21.36 26.6546 20.3621 25.243 20.3621H11.0567C9.64554 20.3621 8.50049 21.36 8.50049 22.5906C8.50049 23.8212 9.64554 24.8191 11.0567 24.8191H25.243Z" fill="#666666"/>
<path d="M12.6339 16.5464H13.5519C14.9641 16.5464 16.1081 15.5485 16.1081 14.3182C16.1081 13.087 14.9641 12.0894 13.5519 12.0894H12.6339C11.222 12.0894 10.0776 13.0873 10.0776 14.3182C10.0776 15.5485 11.222 16.5464 12.6339 16.5464Z" fill="#666666"/>
<path d="M28.0392 12.0894H20.6245C19.2122 12.0894 18.0679 13.0873 18.0679 14.3182C18.0679 15.5488 19.2122 16.5464 20.6245 16.5464H28.0392C29.4511 16.5464 30.5955 15.5485 30.5955 14.3182C30.5955 13.087 29.4511 12.0894 28.0392 12.0894Z" fill="#666666"/>
<path d="M13.5632 28.6357H12.6339C11.222 28.6357 10.0776 29.6337 10.0776 30.8646C10.0776 32.0952 11.222 33.0928 12.6339 33.0928H13.5632C14.9751 33.0928 16.1194 32.0949 16.1194 30.8646C16.1194 29.6337 14.9751 28.6357 13.5632 28.6357Z" fill="#666666"/>
<path d="M28.0391 28.6357H20.6354C19.2235 28.6357 18.0791 29.6337 18.0791 30.8646C18.0791 32.0952 19.2235 33.0928 20.6354 33.0928H28.0391C29.4511 33.0928 30.5954 32.0949 30.5954 30.8646C30.5954 29.6337 29.4511 28.6357 28.0391 28.6357Z" fill="#666666"/>
<path d="M77.9787 26.5353L68.4261 13.6665C68.0495 13.1582 67.5159 12.8687 66.957 12.8687H55.663V2.45139C55.663 1.09739 54.7721 0 53.6728 0H17.4019C16.3026 0 15.4116 1.09774 15.4116 2.45139C15.4116 3.80504 16.3026 4.90278 17.4019 4.90278H51.6822V43.939H34.5168C33.657 40.3819 30.9796 37.7801 27.8165 37.7801C24.6534 37.7801 21.9754 40.3819 21.1165 43.939H17.4019C16.3026 43.939 15.4116 45.0364 15.4116 46.3901C15.4116 47.7444 16.3026 48.8415 17.4019 48.8415H21.1165C21.9754 52.3979 24.6534 55 27.8165 55C30.9796 55 33.657 52.3979 34.5168 48.8415H53.6725H58.3904C59.2502 52.3979 61.9282 55 65.0908 55C68.2544 55 70.9319 52.3979 71.7913 48.8415H76.5096C77.6089 48.8415 78.4999 47.7441 78.4999 46.3901V28.1892C78.5004 27.5778 78.3139 26.9873 77.9787 26.5353ZM27.8165 50.0979C26.1569 50.0979 24.8067 48.4349 24.8067 46.3904C24.8067 44.3463 26.1569 42.6829 27.8165 42.6829C29.4761 42.6829 30.8263 44.3467 30.8263 46.3904C30.8266 48.4349 29.4761 50.0979 27.8165 50.0979ZM65.091 50.0979C63.4314 50.0979 62.0812 48.4349 62.0812 46.3904C62.0812 44.3463 63.4317 42.6829 65.091 42.6829C66.7512 42.6829 68.1014 44.3467 68.1014 46.3904C68.1017 48.4349 66.7512 50.0979 65.091 50.0979ZM71.7919 43.9394C70.9324 40.3822 68.255 37.7805 65.0913 37.7805C61.9285 37.7805 59.2508 40.3822 58.391 43.9394H55.6633V17.7719H66.0805L71.9937 25.7382H60.7199C59.6212 25.7382 58.7302 26.8359 58.7302 28.1896C58.7302 29.5439 59.6212 30.641 60.7199 30.641H74.5199V43.939H71.7919V43.9394Z" fill="#666666"/>
</svg>
